<?xml version="1.0" standalone="no"?><!DOCTYPE svg PUBLIC "-//W3C//DTD SVG 1.1//EN" "http://www.w3.org/Graphics/SVG/1.1/DTD/svg11.dtd"><svg t="1779930404843" class="icon" viewBox="0 0 1024 1024" version="1.1" xmlns="http://www.w3.org/2000/svg" p-id="14479" width="64" height="64" xmlns:xlink="http://www.w3.org/1999/xlink"><path d="M375.814257 423.051731c-0.312831 26.799185 19.916904 46.71609 47.654582 47.028921 34.202851 0.521385 68.301426 0.208554 102.504277 0.312831 11.157637 0 11.157637 0 11.366192 11.05336 0 11.366191-0.208554 22.523829 0.208554 33.890021 0.208554 5.213849-1.876986 6.778004-6.986559 6.778004-44.943381-0.208554-89.886762 0.312831-134.830142-0.521385-50.470061-0.938493-92.70224-40.355193-95.726273-90.825255-1.564155-27.112016-1.876986-54.745418 1.772709-81.544603 5.943788-44.004888 47.758859-78.52057 92.076578-78.937678 45.256212-0.521385 90.30387 0 135.560082-0.312831 5.943788 0 8.550713 1.459878 8.237881 7.925051-0.521385 12.09613-0.521385 24.087984 0 36.288391 0.312831 6.465173-2.189817 7.716497-8.237881 7.716497-35.97556-0.312831-72.055397-0.312831-108.030958 0-23.045214 0.208554-40.668024 16.058656-45.047657 38.478208-1.459878 6.986558 0.521385 8.863544 7.299389 8.863544 39.938086-0.208554 79.980448 0 119.814256 0 10.844807 0 10.844807 0 10.844807 10.740529v32.325866c0 10.531976 0 10.531976-10.219145 10.531975H385.824847c-3.441141-0.312831-6.56945 0-10.01059 0.208554z m575.608961-153.078615c-40.980855 0-81.961711-0.312831-122.942566 0.208554-44.004888 0.625662-84.777189 36.079837-92.180856 79.459063-4.588187 26.694908-3.753971 53.28554-1.564154 80.084725 3.753971 46.194705 39.208147 89.365377 95.204888 91.868025 40.042363 1.876986 80.397556 0.312831 120.648472 0.521385 4.901018 0 6.256619-1.876986 6.152342-6.673727-0.312831-9.176375 0-18.457026 0-27.633402v-29.823218H944.749491c-27.32057 0-54.745418 0-81.961711-0.208554-11.783299-0.208554-22.83666-3.441141-32.117312-11.05336-22.732383-18.457026-30.44888-55.68391-16.684317-82.274542 10.531976-20.542566 27.946232-30.865988 50.782892-31.178819 28.36334-0.312831 56.72668-0.208554 85.09002-0.521384 2.398371 0 6.673727-2.398371 6.673727-3.753972 0.521385-19.395519 0.312831-38.791039 0.312831-58.603666-2.919756-0.104277-4.171079-0.417108-5.422403-0.417108zM270.598778 457.984521c-27.633401 0-55.162525 0.208554-82.795927-0.208554-18.248473-0.208554-32.638697-8.550713-43.483503-23.045213-9.176375-12.304684-11.05336-26.2778-10.844806-40.980856 0.312831-36.914053 23.775153-60.584929 60.689205-60.584929 25.964969 0 52.034216 0 77.999186-0.208554 3.024033 0 5.943788-0.312831 9.176375-0.521384v-62.149084c-2.398371-0.208554-4.066802-0.625662-5.839512-0.625662-40.668024 0-81.336049-0.312831-122.212627 0.208554-41.189409 0.521385-82.170265 34.724236-90.30387 75.07943-5.52668 27.007739-4.692464 54.224033-3.128309 81.544603 2.502648 43.483503 33.89002 83.213035 76.643584 91.763747 17.935642 3.649695 37.01833 3.024033 55.475357 3.336864 27.32057 0.521385 54.745418 0.208554 81.961711 0.208554 3.441141 0 7.925051 1.147047 7.716496-4.901019v-58.916497h-11.05336z m286.657434-136.602851c14.703055 0.208554 29.301833 0.208554 44.109165 0.312831 20.646843 0.208554 29.197556 8.550713 29.197556 28.989002 0 53.598371 0.208554 107.196741 0.208554 160.690835v10.531976c23.775153 0 46.403259-0.312831 68.927087 0.208554 6.673727 0.208554 8.029328-2.398371 8.029328-8.237882 0-65.068839-0.521385-130.241955 0.312831-195.310795 0.312831-24.9222-22.106721-49.323014-49.218737-48.697352-31.700204 0.834216-63.504684 0.208554-95.413442 0.312831-2.711202 0-5.52668 0.312831-8.342159 0.521385v49.844399c1.251324 0.312831 1.668432 0.834216 2.189817 0.834216z" fill="#DA4818" p-id="14480"></path><path d="M709.396334 285.197556c0-11.991853-0.208554-31.804481 0.208554-42.440733 0.208554-2.398371 1.564155-5.839511 3.649694-6.778004 21.898167-11.470468 44.109165-22.732383 67.675764-34.724237 0.208554 3.649695 0.312831 6.152342 0.312831 8.550713 0 13.451731 0.312831 26.799185-0.312831 40.042363-0.208554 3.12831-2.502648 7.61222-5.213849 8.967821-13.034623 7.090835-26.694908 13.451731-40.042363 20.021181-7.716497 2.08554-14.703055 4.588187-14.703055 4.588187s-3.545418 0.417108-11.574745 1.772709z" fill="#910780" p-id="14481"></path><path d="M145.049287 599.905499h34.202851v39.833809h83.838697v126.070875h-33.264358v-15.537271h-50.574339v72.368229h-34.202851v-72.368229H94.474949V766.435845H61.210591V639.635031h83.838696v-39.729532zM94.474949 719.198371h50.574338v-48.593076H94.474949v48.593076z m135.351528-48.488799h-50.574339v48.593076h50.574339v-48.593076z m60.480651 149.950306V609.290428h204.591446v211.056619h-32.117311v-7.820774H322.42444v8.133605h-32.117312z m172.369858-183.736049H322.42444v147.864766h140.252546V636.923829z m-12.617516 81.440326h-16.788594c6.256619 5.422403 12.513238 11.157637 18.769857 17.309979l-11.887576 10.74053h15.328717V772.692464H328.472505v-26.2778h45.881874v-28.050509h-40.042363v-26.277801H374.354379v-15.954378h-43.58778v-26.277801h122.525458v26.277801h-48.801629v15.954378h45.673319v26.277801h-0.104277z m-39.312423 11.261914l13.034623-11.261914h-19.291242v28.050509H426.492872c-5.943788-6.673727-11.157637-12.304684-15.745825-16.788595z m296.980855-100.31446v122.212627c7.299389 3.024033 16.058656 6.048065 26.486355 8.863544-4.066802 26.382077-9.69776 42.232179-16.997149 47.654583s-16.892872 8.133605-28.884725 8.133604h-53.911202c-24.400815 0-36.601222-11.05336-36.601222-33.264358v-22.523829H553.710794V777.906314h-32.325865V629.311609h76.43503V601.678208h32.638697v27.633401h77.269246zM553.710794 657.674949v22.940937h44.109165v-22.940937H553.710794z m0 74.349491h44.109165v-23.149491H553.710794V732.02444z m121.586966-74.349491h-44.943381v22.940937h44.943381v-22.940937z m0 74.349491v-23.149491h-44.943381V732.02444h44.943381z m-31.178819 56.205295H677.800407c5.52668 0 9.906314-0.938493 13.138901-2.815478s5.318126-4.48391 6.256619-7.820774 2.08554-9.072098 3.44114-17.101426h-70.282688v15.954379c0 7.820774 4.588187 11.783299 13.764562 11.783299z m96.87332-36.809776c14.285947-17.30998 25.339308-36.288391 33.160081-56.830957h-31.178819v-28.989002h32.117312v-25.130754l-27.216293 2.502648c-1.459878-10.219145-3.232587-19.082688-5.21385-26.799185 30.970265-2.398371 59.646436-5.422403 85.81996-9.176375l8.550713 26.2778c-10.114868 1.459878-21.063951 2.815479-32.847251 4.17108v28.259063h29.197556V694.484725h-29.197556v19.291242l10.74053-10.114867c10.74053 9.593483 19.916904 18.248473 27.424847 26.069246l-18.874135 17.101426c-7.403666-8.65499-13.868839-15.954379-19.291242-21.898167v96.977597h-29.197556v-76.017923c-7.090835 14.807332-15.015886 28.571894-23.87943 41.397963-2.294094-9.802037-5.735234-21.79389-10.114867-35.871283z m86.549898-6.778004l73.098167-6.673727V600.948269H932.236253v134.100204l30.553156-2.815479 2.502648 28.571894-33.055804 3.024033v58.082281h-31.700204v-55.266803l-69.239919 6.256619-3.753971-28.259063z m25.652138-70.595519c13.1389 9.69776 25.964969 20.334012 38.478208 31.700204l-21.168228 20.438289c-10.219145-10.74053-22.315275-21.689613-36.392668-32.638697l19.082688-19.499796z m7.61222-57.039511c11.366191 8.342159 24.087984 18.874134 37.956823 31.491649l-20.855397 20.646844c-11.261914-11.991853-23.253768-23.045214-35.97556-33.055805l18.874134-19.082688z" p-id="14482"></path></svg>